<svg width="352" height="401" viewBox="0 0 352 401" fill="none" xmlns="http://www.w3.org/2000/svg">
<rect width="352" height="401" rx="29.789" fill="white"/>
<path fill-rule="evenodd" clip-rule="evenodd" d="M86.332 69.0835V94.167H111.416H136.499V69.0835V44H111.416H86.332V69.0835ZM143.666 54.7501V65.5002H147.249H150.832V61.9168V58.3334H154.416H157.999V65.5002V72.6669H150.832H143.666V76.2502V79.8336H147.249H150.832V83.417V87.0003H147.249H143.666V90.5837V94.167H147.249H150.832V90.5837V87.0003H154.416H157.999V90.5837V94.167H161.583H165.166V90.5837V87.0003H168.749H172.333V90.5837V94.167H175.916H179.499V97.7504V101.334H175.916H172.333V115.667V130.001H165.166H157.999V122.834V115.667H161.583H165.166V112.084V108.5H161.583H157.999V104.917V101.334H132.916H107.832V104.917V108.5H100.665H93.4988V104.917V101.334H89.9154H86.332V108.5V115.667H89.9154H93.4988V119.251V122.834H89.9154H86.332V144.334V165.834H89.9154H93.4988V158.668V151.501H97.0821H100.665V158.668V165.834H104.249H107.832V158.668V151.501H111.416H114.999V155.084V158.668H118.582H122.166V162.251V165.834H129.332H136.499V162.251V158.668H140.082H143.666V180.168V201.668H150.832H157.999V208.835V216.001H150.832H143.666V219.585V223.168H150.832H157.999V219.585V216.001H161.583H165.166V212.418V208.835H168.749H172.333V201.668V194.501H175.916H179.499V190.918V187.334H183.083H186.666V194.501V201.668H183.083H179.499V205.251V208.835H183.083H186.666V212.418V216.001H190.249H193.833V212.418V208.835H204.583H215.333V205.251V201.668H218.916H222.5V198.084V194.501H229.666H236.833V176.584V158.668H240.416H244V165.834V173.001H251.167H258.333V176.584V180.168H254.75H251.167V183.751V187.334H258.333H265.5V180.168V173.001H261.917H258.333V165.834V158.668H261.917H265.5V151.501V144.334H261.917H258.333V140.751V137.167H261.917H265.5V126.417V115.667H261.917H258.333V112.084V108.5H261.917H265.5V104.917V101.334H254.75H244V104.917V108.5H240.416H236.833V104.917V101.334H233.25H229.666V104.917V108.5H226.083H222.5V112.084V115.667H218.916H215.333V108.5V101.334H211.75H208.166V108.5V115.667H204.583H201V108.5V101.334H193.833H186.666V97.7504V94.167H190.249H193.833V90.5837V87.0003H190.249H186.666V83.417V79.8336H183.083H179.499V76.2502V72.6669H183.083H186.666V65.5002V58.3334H190.249H193.833V61.9168V65.5002H197.416H201V79.8336V94.167H204.583H208.166V79.8336V65.5002H204.583H201V61.9168V58.3334H204.583H208.166V54.7501V51.1667H204.583H201V54.7501V58.3334H197.416H193.833V54.7501V51.1667H190.249H186.666V47.5834V44H183.083H179.499V47.5834V51.1667H183.083H186.666V54.7501V58.3334H183.083H179.499V65.5002V72.6669H172.333H165.166V69.0835V65.5002H168.749H172.333V61.9168V58.3334H168.749H165.166V54.7501V51.1667H168.749H172.333V47.5834V44H168.749H165.166V47.5834V51.1667H157.999H150.832V47.5834V44H147.249H143.666V54.7501ZM215.333 69.0835V94.167H240.416H265.5V69.0835V44H240.416H215.333V69.0835ZM128.974 69.0835V86.642H111.416H93.8571V69.0835V51.5251H111.416H128.974V69.0835ZM257.975 69.0835V86.642H240.416H222.858V69.0835V51.5251H240.416H257.975V69.0835ZM100.665 69.0835V79.8336H111.416H122.166V69.0835V58.3334H111.416H100.665V69.0835ZM229.666 69.0835V79.8336H240.416H251.167V69.0835V58.3334H240.416H229.666V69.0835ZM165.166 76.2502V79.8336H161.583H157.999V76.2502V72.6669H161.583H165.166V76.2502ZM179.499 83.417V87.0003H183.083H186.666V90.5837V94.167H183.083H179.499V90.5837V87.0003H175.916H172.333V83.417V79.8336H175.916H179.499V83.417ZM186.666 104.917V108.5H183.083H179.499V104.917V101.334H183.083H186.666V104.917ZM114.999 115.667V122.834H107.832H100.665V119.251V115.667H104.249H107.832V112.084V108.5H111.416H114.999V115.667ZM143.666 115.667V122.834H140.082H136.499V126.417V130.001H140.082H143.666V133.584V137.167H140.082H136.499V140.751V144.334H132.916H129.332V147.917V151.501H132.916H136.499V155.084V158.668H132.916H129.332V155.084V151.501H125.749H122.166V147.917V144.334H107.832H93.4988V140.751V137.167H97.0821H100.665V133.584V130.001H107.832H114.999V133.584V137.167H118.582H122.166V130.001V122.834H129.332H136.499V119.251V115.667H132.916H129.332V112.084V108.5H136.499H143.666V115.667ZM215.333 119.251V122.834H218.916H222.5V126.417V130.001H226.083H229.666V122.834V115.667H233.25H236.833V122.834V130.001H247.583H258.333V133.584V137.167H254.75H251.167V140.751V144.334H244H236.833V140.751V137.167H233.25H229.666V144.334V151.501H233.25H236.833V155.084V158.668H233.25H229.666V155.084V151.501H226.083H222.5V155.084V158.668H218.916H215.333V155.084V151.501H218.916H222.5V147.917V144.334H218.916H215.333V140.751V137.167H208.166H201V133.584V130.001H204.583H208.166V122.834V115.667H211.75H215.333V119.251ZM258.333 119.251V122.834H251.167H244V119.251V115.667H251.167H258.333V119.251ZM186.666 126.417V130.001H190.249H193.833V140.751V151.501H197.416H201V147.917V144.334H204.583H208.166V147.917V151.501H204.583H201V155.084V158.668H186.666H172.333V162.251V165.834H165.166H157.999V151.501V137.167H168.749H179.499V130.001V122.834H183.083H186.666V126.417ZM129.332 133.584V137.167H125.749H122.166V140.751V144.334H125.749H129.332V140.751V137.167H132.916H136.499V133.584V130.001H132.916H129.332V133.584ZM215.333 133.584V137.167H218.916H222.5V133.584V130.001H218.916H215.333V133.584ZM150.832 151.501V158.668H147.249H143.666V151.501V144.334H147.249H150.832V151.501ZM165.166 151.501V158.668H168.749H172.333V155.084V151.501H179.499H186.666V147.917V144.334H175.916H165.166V151.501ZM258.333 155.084V158.668H254.75H251.167V155.084V151.501H254.75H258.333V155.084ZM201 173.001V180.168H190.249H179.499V183.751V187.334H172.333H165.166V190.918V194.501H161.583H157.999V190.918V187.334H161.583H165.166V183.751V180.168H157.999H150.832V176.584V173.001H157.999H165.166V176.584V180.168H168.749H172.333V176.584V173.001H179.499H186.666V169.418V165.834H193.833H201V173.001ZM229.666 176.584V187.334H218.916H208.166V176.584V165.834H218.916H229.666V176.584ZM86.332 198.084V223.168H111.416H136.499V198.084V173.001H111.416H86.332V198.084ZM215.333 176.584V180.168H218.916H222.5V176.584V173.001H218.916H215.333V176.584ZM128.974 198.084V215.643H111.416H93.8571V198.084V180.526H111.416H128.974V198.084ZM100.665 198.084V208.835H111.416H122.166V198.084V187.334H111.416H100.665V198.084ZM215.333 198.084V201.668H208.166H201V198.084V194.501H208.166H215.333V198.084ZM251.167 198.084V201.668H240.416H229.666V205.251V208.835H226.083H222.5V212.418V216.001H229.666H236.833V219.585V223.168H240.416H244V219.585V216.001H251.167H258.333V219.585V223.168H261.917H265.5V208.835V194.501H258.333H251.167V198.084ZM244 212.418V216.001H240.416H236.833V212.418V208.835H240.416H244V212.418ZM172.333 219.585V223.168H175.916H179.499V219.585V216.001H175.916H172.333V219.585ZM201 219.585V223.168H208.166H215.333V219.585V216.001H208.166H201V219.585Z" fill="#202020"/>
<path d="M126.556 278.084V269.357H128.255V278.084H126.556ZM127.414 268.01C127.119 268.01 126.865 267.912 126.653 267.715C126.444 267.514 126.34 267.275 126.34 266.999C126.34 266.718 126.444 266.48 126.653 266.283C126.865 266.082 127.119 265.982 127.414 265.982C127.71 265.982 127.961 266.082 128.17 266.283C128.382 266.48 128.488 266.718 128.488 266.999C128.488 267.275 128.382 267.514 128.17 267.715C127.961 267.912 127.71 268.01 127.414 268.01ZM140.785 272.266C140.785 273.508 140.558 274.576 140.103 275.47C139.648 276.36 139.025 277.046 138.234 277.527C137.446 278.004 136.55 278.243 135.546 278.243C134.539 278.243 133.639 278.004 132.847 277.527C132.059 277.046 131.438 276.359 130.984 275.465C130.529 274.571 130.302 273.504 130.302 272.266C130.302 271.023 130.529 269.957 130.984 269.067C131.438 268.173 132.059 267.487 132.847 267.01C133.639 266.529 134.539 266.289 135.546 266.289C136.55 266.289 137.446 266.529 138.234 267.01C139.025 267.487 139.648 268.173 140.103 269.067C140.558 269.957 140.785 271.023 140.785 272.266ZM139.046 272.266C139.046 271.319 138.893 270.521 138.586 269.874C138.283 269.222 137.866 268.73 137.336 268.396C136.809 268.059 136.213 267.891 135.546 267.891C134.876 267.891 134.277 268.059 133.751 268.396C133.224 268.73 132.808 269.222 132.501 269.874C132.198 270.521 132.046 271.319 132.046 272.266C132.046 273.213 132.198 274.012 132.501 274.664C132.808 275.311 133.224 275.804 133.751 276.141C134.277 276.474 134.876 276.641 135.546 276.641C136.213 276.641 136.809 276.474 137.336 276.141C137.866 275.804 138.283 275.311 138.586 274.664C138.893 274.012 139.046 273.213 139.046 272.266ZM149.32 269.504C149.26 268.967 149.01 268.55 148.57 268.254C148.131 267.955 147.578 267.806 146.911 267.806C146.434 267.806 146.021 267.881 145.673 268.033C145.324 268.181 145.053 268.385 144.86 268.646C144.671 268.904 144.576 269.198 144.576 269.527C144.576 269.804 144.64 270.042 144.769 270.243C144.902 270.444 145.074 270.612 145.286 270.749C145.502 270.881 145.733 270.993 145.979 271.084C146.226 271.171 146.462 271.243 146.69 271.3L147.826 271.595C148.197 271.686 148.578 271.809 148.968 271.965C149.358 272.12 149.72 272.325 150.053 272.578C150.387 272.832 150.656 273.146 150.86 273.521C151.068 273.896 151.173 274.345 151.173 274.868C151.173 275.527 151.002 276.112 150.661 276.624C150.324 277.135 149.834 277.539 149.19 277.834C148.549 278.129 147.775 278.277 146.866 278.277C145.995 278.277 145.241 278.139 144.604 277.862C143.968 277.586 143.47 277.194 143.11 276.686C142.75 276.175 142.551 275.569 142.513 274.868H144.275C144.309 275.289 144.445 275.639 144.684 275.919C144.926 276.196 145.235 276.402 145.61 276.539C145.989 276.671 146.404 276.737 146.854 276.737C147.351 276.737 147.792 276.66 148.178 276.504C148.568 276.345 148.875 276.126 149.099 275.845C149.322 275.561 149.434 275.23 149.434 274.851C149.434 274.506 149.335 274.224 149.138 274.004C148.945 273.785 148.682 273.603 148.349 273.459C148.019 273.315 147.646 273.188 147.229 273.078L145.854 272.703C144.923 272.45 144.184 272.076 143.638 271.584C143.097 271.092 142.826 270.44 142.826 269.629C142.826 268.959 143.008 268.374 143.371 267.874C143.735 267.374 144.228 266.985 144.849 266.709C145.47 266.429 146.171 266.289 146.951 266.289C147.739 266.289 148.434 266.427 149.036 266.703C149.642 266.98 150.12 267.36 150.468 267.845C150.817 268.326 150.998 268.879 151.013 269.504H149.32ZM161.8 265.902L158.05 279.834H156.533L160.283 265.902H161.8ZM168.597 278.084H166.734L170.921 266.448H172.95L177.137 278.084H175.273L171.984 268.561H171.893L168.597 278.084ZM168.91 273.527H174.955V275.004H168.91V273.527ZM180.38 272.902V278.084H178.681V269.357H180.312V270.777H180.42C180.621 270.315 180.935 269.944 181.363 269.664C181.795 269.383 182.338 269.243 182.994 269.243C183.588 269.243 184.109 269.368 184.556 269.618C185.003 269.864 185.35 270.232 185.596 270.72C185.842 271.209 185.965 271.813 185.965 272.533V278.084H184.266V272.737C184.266 272.105 184.102 271.61 183.772 271.254C183.442 270.895 182.99 270.715 182.414 270.715C182.02 270.715 181.67 270.8 181.363 270.97C181.06 271.141 180.819 271.391 180.641 271.72C180.467 272.046 180.38 272.44 180.38 272.902ZM191.511 278.254C190.806 278.254 190.177 278.075 189.624 277.715C189.075 277.351 188.643 276.834 188.329 276.164C188.018 275.489 187.863 274.681 187.863 273.737C187.863 272.794 188.02 271.987 188.335 271.317C188.653 270.646 189.088 270.133 189.641 269.777C190.194 269.421 190.821 269.243 191.522 269.243C192.064 269.243 192.499 269.334 192.829 269.516C193.162 269.694 193.42 269.902 193.602 270.141C193.787 270.379 193.931 270.59 194.033 270.771H194.136V266.448H195.835V278.084H194.175V276.726H194.033C193.931 276.912 193.783 277.124 193.59 277.362C193.401 277.601 193.139 277.809 192.806 277.987C192.473 278.165 192.041 278.254 191.511 278.254ZM191.886 276.806C192.374 276.806 192.787 276.677 193.124 276.419C193.465 276.158 193.723 275.796 193.897 275.334C194.075 274.872 194.164 274.334 194.164 273.72C194.164 273.114 194.077 272.584 193.903 272.129C193.728 271.675 193.473 271.321 193.136 271.067C192.799 270.813 192.382 270.686 191.886 270.686C191.374 270.686 190.948 270.819 190.607 271.084C190.266 271.349 190.009 271.711 189.835 272.169C189.664 272.628 189.579 273.145 189.579 273.72C189.579 274.304 189.666 274.828 189.84 275.294C190.014 275.76 190.272 276.129 190.613 276.402C190.958 276.671 191.382 276.806 191.886 276.806ZM198.259 278.084V269.357H199.901V270.743H199.992C200.151 270.273 200.432 269.904 200.833 269.635C201.238 269.362 201.697 269.226 202.208 269.226C202.314 269.226 202.439 269.23 202.583 269.237C202.731 269.245 202.846 269.254 202.93 269.266V270.891C202.862 270.872 202.74 270.851 202.566 270.828C202.392 270.802 202.218 270.789 202.043 270.789C201.642 270.789 201.284 270.874 200.969 271.044C200.659 271.211 200.413 271.444 200.231 271.743C200.049 272.039 199.958 272.376 199.958 272.754V278.084H198.259ZM207.763 278.26C206.945 278.26 206.231 278.073 205.621 277.698C205.012 277.323 204.538 276.798 204.201 276.124C203.864 275.45 203.695 274.662 203.695 273.76C203.695 272.855 203.864 272.063 204.201 271.385C204.538 270.707 205.012 270.181 205.621 269.806C206.231 269.431 206.945 269.243 207.763 269.243C208.582 269.243 209.296 269.431 209.906 269.806C210.515 270.181 210.989 270.707 211.326 271.385C211.663 272.063 211.832 272.855 211.832 273.76C211.832 274.662 211.663 275.45 211.326 276.124C210.989 276.798 210.515 277.323 209.906 277.698C209.296 278.073 208.582 278.26 207.763 278.26ZM207.769 276.834C208.299 276.834 208.739 276.694 209.087 276.414C209.436 276.133 209.693 275.76 209.86 275.294C210.031 274.828 210.116 274.315 210.116 273.754C210.116 273.198 210.031 272.686 209.86 272.22C209.693 271.751 209.436 271.374 209.087 271.09C208.739 270.806 208.299 270.664 207.769 270.664C207.235 270.664 206.792 270.806 206.44 271.09C206.091 271.374 205.832 271.751 205.661 272.22C205.495 272.686 205.411 273.198 205.411 273.754C205.411 274.315 205.495 274.828 205.661 275.294C205.832 275.76 206.091 276.133 206.44 276.414C206.792 276.694 207.235 276.834 207.769 276.834ZM213.728 278.084V269.357H215.427V278.084H213.728ZM214.586 268.01C214.29 268.01 214.037 267.912 213.825 267.715C213.616 267.514 213.512 267.275 213.512 266.999C213.512 266.718 213.616 266.48 213.825 266.283C214.037 266.082 214.29 265.982 214.586 265.982C214.881 265.982 215.133 266.082 215.342 266.283C215.554 266.48 215.66 266.718 215.66 266.999C215.66 267.275 215.554 267.514 215.342 267.715C215.133 267.912 214.881 268.01 214.586 268.01ZM220.979 278.254C220.275 278.254 219.646 278.075 219.093 277.715C218.544 277.351 218.112 276.834 217.798 276.164C217.487 275.489 217.332 274.681 217.332 273.737C217.332 272.794 217.489 271.987 217.803 271.317C218.121 270.646 218.557 270.133 219.11 269.777C219.663 269.421 220.29 269.243 220.991 269.243C221.532 269.243 221.968 269.334 222.298 269.516C222.631 269.694 222.888 269.902 223.07 270.141C223.256 270.379 223.4 270.59 223.502 270.771H223.604V266.448H225.303V278.084H223.644V276.726H223.502C223.4 276.912 223.252 277.124 223.059 277.362C222.87 277.601 222.608 277.809 222.275 277.987C221.942 278.165 221.51 278.254 220.979 278.254ZM221.354 276.806C221.843 276.806 222.256 276.677 222.593 276.419C222.934 276.158 223.192 275.796 223.366 275.334C223.544 274.872 223.633 274.334 223.633 273.72C223.633 273.114 223.546 272.584 223.371 272.129C223.197 271.675 222.942 271.321 222.604 271.067C222.267 270.813 221.851 270.686 221.354 270.686C220.843 270.686 220.417 270.819 220.076 271.084C219.735 271.349 219.478 271.711 219.303 272.169C219.133 272.628 219.048 273.145 219.048 273.72C219.048 274.304 219.135 274.828 219.309 275.294C219.483 275.76 219.741 276.129 220.082 276.402C220.426 276.671 220.851 276.806 221.354 276.806Z" fill="#747474"/>
<path d="M71.6232 313V302.584H75.5992V306.266H82.1092V302.584H86.0712V313H82.1092V309.038H75.5992V313H71.6232ZM95.9841 308.716L94.2341 305.132L92.5261 308.716H95.9841ZM98.0701 313L97.2581 311.32H91.3081L90.5101 313H86.4781L91.6301 302.584H96.9781L102.424 313H98.0701ZM102.782 313V302.584H112.582C115.62 302.584 116.432 303.76 116.432 304.95V305.104C116.432 306.406 115.326 306.994 114.64 307.148C115.564 307.372 117.034 307.988 117.034 309.822V309.99C117.034 311.628 116.04 313 112.638 313H102.782ZM111.378 304.95H106.758V306.42H111.378C112.204 306.42 112.442 306.084 112.442 305.692V305.664C112.442 305.258 112.204 304.95 111.378 304.95ZM111.63 308.758H106.758V310.55H111.63C112.666 310.55 112.862 310.06 112.862 309.654V309.612C112.862 309.164 112.652 308.758 111.63 308.758ZM117.794 302.584H129.316V305.132H121.714V306.434H129.162V308.968H121.714V310.396H129.428V313H117.794V302.584ZM129.893 310.228H131.265C131.867 309.08 131.993 307.176 131.993 302.584H144.103V310.228H145.783V314.82H142.045V313H133.631V314.82H129.893V310.228ZM134.947 310.228H140.127V305.356H135.577C135.577 307.442 135.395 309.346 134.947 310.228ZM156.991 313V306.462L150.453 313H146.477V302.584H150.453V309.136L156.991 302.584H160.967V313H156.991ZM166.441 313V305.426H161.947V302.584H174.911V305.426H170.417V313H166.441ZM175.859 302.584H187.381V305.132H179.779V306.434H187.227V308.968H179.779V310.396H187.493V313H175.859V302.584ZM201.828 313L196.746 308.338V313H192.77V302.584H196.746V306.7L201.87 302.584H206.812L200.75 307.316L207.008 313H201.828ZM216.119 308.716L214.369 305.132L212.661 308.716H216.119ZM218.205 313L217.393 311.32H211.443L210.645 313H206.613L211.765 302.584H217.113L222.559 313H218.205ZM222.917 313V302.584H228.377L231.569 308.436L234.817 302.584H240.053V313H236.119V306.504L232.465 313H230.435L226.795 306.504V313H222.917ZM241.319 302.584H252.841V305.132H245.239V306.434H252.687V308.968H245.239V310.396H252.953V313H241.319V302.584ZM262.701 309.738H257.997V313H254.021V302.584H262.701C266.551 302.584 267.643 304.11 267.643 306.028V306.252C267.643 308.142 266.509 309.738 262.701 309.738ZM257.997 305.188V307.134H262.225C263.135 307.134 263.541 306.756 263.541 306.182V306.14C263.541 305.538 263.163 305.188 262.225 305.188H257.997ZM281.299 302.584L275.979 310.634C274.789 312.426 274.313 313 272.003 313H269.917V310.214H271.751C272.031 310.214 272.115 310.13 272.115 309.976V309.962C272.115 309.836 272.059 309.682 271.933 309.528L266.809 302.584H271.415L274.481 307.106L277.253 302.584H281.299ZM77.9704 322.584L72.6504 330.634C71.4604 332.426 70.9844 333 68.6744 333H66.5884V330.214H68.4224C68.7024 330.214 68.7864 330.13 68.7864 329.976V329.962C68.7864 329.836 68.7304 329.682 68.6044 329.528L63.4804 322.584H68.0864L71.1524 327.106L73.9244 322.584H77.9704ZM84.9674 333.196H84.4214C78.0234 333.196 77.0574 329.934 77.0574 327.96V327.554C77.0574 325.566 77.9254 322.388 84.4214 322.388H84.9674C91.2954 322.388 92.2194 325.258 92.2194 326.602V326.784H88.0894C88.0054 326.504 87.6834 325.188 84.6594 325.188C81.7894 325.188 81.1734 326.462 81.1734 327.624V327.792C81.1734 328.912 81.8734 330.382 84.6734 330.382C87.7394 330.382 88.0474 328.912 88.1034 328.674H92.2194V328.898C92.2194 330.256 91.2394 333.196 84.9674 333.196ZM97.0833 333V325.426H92.5893V322.584H105.553V325.426H101.059V333H97.0833ZM115.181 329.738H110.477V333H106.501V322.584H115.181C119.031 322.584 120.123 324.11 120.123 326.028V326.252C120.123 328.142 118.989 329.738 115.181 329.738ZM110.477 325.188V327.134H114.705C115.615 327.134 116.021 326.756 116.021 326.182V326.14C116.021 325.538 115.643 325.188 114.705 325.188H110.477ZM128.191 322.388H128.821C135.541 322.388 136.409 325.594 136.409 327.554V327.974C136.409 329.92 135.555 333.196 128.821 333.196H128.191C121.443 333.196 120.589 329.92 120.589 327.974V327.554C120.589 325.594 121.443 322.388 128.191 322.388ZM132.293 327.848V327.652C132.293 326.546 131.579 325.188 128.499 325.188C125.363 325.188 124.705 326.546 124.705 327.652V327.82C124.705 328.912 125.419 330.382 128.499 330.382C131.579 330.382 132.293 328.968 132.293 327.848ZM147.79 333V326.462L141.252 333H137.276V322.584H141.252V329.136L147.79 322.584H151.766V333H147.79ZM144.892 322.052H144.332C141.602 322.052 141.168 320.414 141.168 319.672V319.644H143.73C143.73 319.812 143.856 320.33 144.626 320.33C145.382 320.33 145.494 319.812 145.494 319.644H148.014V319.672C148.014 320.414 147.384 322.052 144.892 322.052ZM160.628 333.196H160.082C153.684 333.196 152.718 329.934 152.718 327.96V327.554C152.718 325.566 153.586 322.388 160.082 322.388H160.628C166.956 322.388 167.88 325.258 167.88 326.602V326.784H163.75C163.666 326.504 163.344 325.188 160.32 325.188C157.45 325.188 156.834 326.462 156.834 327.624V327.792C156.834 328.912 157.534 330.382 160.334 330.382C163.4 330.382 163.708 328.912 163.764 328.674H167.88V328.898C167.88 330.256 166.9 333.196 160.628 333.196ZM172.743 333V325.426H168.249V322.584H181.213V325.426H176.719V333H172.743ZM182.161 333V322.584H191.961C194.999 322.584 195.811 323.76 195.811 324.95V325.104C195.811 326.406 194.705 326.994 194.019 327.148C194.943 327.372 196.413 327.988 196.413 329.822V329.99C196.413 331.628 195.419 333 192.017 333H182.161ZM190.757 324.95H186.137V326.42H190.757C191.583 326.42 191.821 326.084 191.821 325.692V325.664C191.821 325.258 191.583 324.95 190.757 324.95ZM191.009 328.758H186.137V330.55H191.009C192.045 330.55 192.241 330.06 192.241 329.654V329.612C192.241 329.164 192.031 328.758 191.009 328.758ZM205.482 328.716L203.732 325.132L202.024 328.716H205.482ZM207.568 333L206.756 331.32H200.806L200.008 333H195.976L201.128 322.584H206.476L211.922 333H207.568ZM216.49 333V322.584H220.466V326.266H226.976V322.584H230.938V333H226.976V329.038H220.466V333H216.49ZM240.851 328.716L239.101 325.132L237.393 328.716H240.851ZM242.937 333L242.125 331.32H236.175L235.377 333H231.345L236.497 322.584H241.845L247.291 333H242.937ZM257.963 335.17V333.154C252.349 332.762 251.551 329.822 251.551 327.974V327.554C251.551 325.566 252.419 322.388 259.153 322.388H259.783C266.475 322.388 267.371 325.566 267.371 327.554V327.974C267.371 329.71 266.629 332.594 261.575 333.098L263.367 335.17H257.963ZM263.255 327.848V327.652C263.255 326.518 262.541 325.188 259.461 325.188C256.325 325.188 255.667 326.504 255.667 327.652V327.82C255.667 328.94 256.381 330.382 259.461 330.382C262.541 330.382 263.255 328.968 263.255 327.848ZM272.338 325.118V326.91H276.902C277.784 326.91 278.106 326.518 278.106 326.014V326C278.106 325.51 277.798 325.118 276.902 325.118H272.338ZM272.338 329.43V333H268.362V322.584H277.826C280.864 322.584 282.208 323.564 282.208 325.258V325.412C282.208 326.924 280.892 327.554 280.108 327.736C281.396 328.03 282.25 328.87 282.25 330.214V331.754C282.25 332.482 282.348 332.748 282.446 332.93V333H278.386C278.288 332.888 278.26 332.748 278.26 332.454V331.236C278.26 330.046 277.714 329.43 276.146 329.43H272.338ZM283.137 327.54H287.757V330.144H283.137V327.54ZM67.8638 353L62.7818 348.338V353H58.8058V342.584H62.7818V346.7L67.9058 342.584H72.8478L66.7858 347.316L73.0438 353H67.8638ZM79.1564 342.388H79.7864C86.5064 342.388 87.3744 345.594 87.3744 347.554V347.974C87.3744 349.92 86.5204 353.196 79.7864 353.196H79.1564C72.4084 353.196 71.5544 349.92 71.5544 347.974V347.554C71.5544 345.594 72.4084 342.388 79.1564 342.388ZM83.2584 347.848V347.652C83.2584 346.546 82.5444 345.188 79.4644 345.188C76.3284 345.188 75.6704 346.546 75.6704 347.652V347.82C75.6704 348.912 76.3844 350.382 79.4644 350.382C82.5444 350.382 83.2584 348.968 83.2584 347.848ZM87.2575 350.228H88.6295C89.2315 349.08 89.3575 347.176 89.3575 342.584H101.468V350.228H103.148V354.82H99.4095V353H90.9955V354.82H87.2575V350.228ZM92.3115 350.228H97.4915V345.356H92.9415C92.9415 347.442 92.7595 349.346 92.3115 350.228ZM107.054 354.554H104.996C105.262 354.064 105.514 353.462 105.584 353H103.918V350.27H107.866V352.496C107.866 353.182 107.39 354.064 107.054 354.554ZM121.873 353V349.388C121.131 349.542 120.095 349.668 118.583 349.668C114.761 349.668 112.759 348.688 112.759 345.538V342.584H116.735V345.034C116.735 346.616 117.757 346.896 119.549 346.896C120.333 346.896 121.201 346.84 121.873 346.686V342.584H125.835V353H121.873ZM131.311 353V345.426H126.817V342.584H139.781V345.426H135.287V353H131.311ZM147.612 342.388H148.242C154.962 342.388 155.829 345.594 155.829 347.554V347.974C155.829 349.92 154.976 353.196 148.242 353.196H147.612C140.864 353.196 140.01 349.92 140.01 347.974V347.554C140.01 345.594 140.864 342.388 147.612 342.388ZM151.714 347.848V347.652C151.714 346.546 151 345.188 147.919 345.188C144.784 345.188 144.126 346.546 144.126 347.652V347.82C144.126 348.912 144.84 350.382 147.919 350.382C151 350.382 151.714 348.968 151.714 347.848ZM156.696 353V342.584H169.506V345.034H160.672V346.28H165.236C169.45 346.28 170.5 347.666 170.5 349.5V349.626C170.5 351.488 169.45 353 165.236 353H156.696ZM160.672 350.48H164.802C166.048 350.48 166.384 350.046 166.384 349.556V349.514C166.384 349.01 166.048 348.632 164.802 348.632H160.672V350.48ZM175.274 345.65H179.656C183.856 345.65 184.92 347.246 184.92 349.192V349.416C184.92 351.362 183.87 353 179.656 353H171.298V342.584H175.274V345.65ZM175.274 350.41H179.152C180.44 350.41 180.804 349.892 180.804 349.332V349.29C180.804 348.702 180.44 348.24 179.152 348.24H175.274V350.41ZM189.68 342.584V353H185.718V342.584H189.68ZM202.771 353.196H202.225C195.827 353.196 194.861 349.934 194.861 347.96V347.554C194.861 345.566 195.729 342.388 202.225 342.388H202.771C209.099 342.388 210.023 345.258 210.023 346.602V346.784H205.893C205.809 346.504 205.487 345.188 202.463 345.188C199.593 345.188 198.977 346.462 198.977 347.624V347.792C198.977 348.912 199.677 350.382 202.477 350.382C205.543 350.382 205.851 348.912 205.907 348.674H210.023V348.898C210.023 350.256 209.043 353.196 202.771 353.196ZM219.909 353L214.827 348.338V353H210.851V342.584H214.827V346.7L219.951 342.584H224.893L218.831 347.316L225.089 353H219.909ZM234.2 348.716L232.45 345.132L230.742 348.716H234.2ZM236.286 353L235.474 351.32H229.524L228.726 353H224.694L229.846 342.584H235.194L240.64 353H236.286ZM247.955 353V349.388C247.213 349.542 246.177 349.668 244.665 349.668C240.843 349.668 238.841 348.688 238.841 345.538V342.584H242.817V345.034C242.817 346.616 243.839 346.896 245.631 346.896C246.415 346.896 247.283 346.84 247.955 346.686V342.584H251.917V353H247.955ZM261.831 348.716L260.081 345.132L258.373 348.716H261.831ZM263.917 353L263.105 351.32H257.155L256.357 353H252.325L257.477 342.584H262.825L268.271 353H263.917ZM270.641 353V345.426H266.147V342.584H279.111V345.426H274.617V353H270.641ZM283.993 345.65H288.375C292.575 345.65 293.639 347.246 293.639 349.192V349.416C293.639 351.362 292.589 353 288.375 353H280.017V342.584H283.993V345.65ZM283.993 350.41H287.871C289.159 350.41 289.523 349.892 289.523 349.332V349.29C289.523 348.702 289.159 348.24 287.871 348.24H283.993V350.41Z" fill="#202020"/>
</svg>
