<svg width="132" height="31" viewBox="0 0 132 31" fill="none" xmlns="http://www.w3.org/2000/svg">
<path d="M22.8771 9.281C18.59 13.7699 18.8398 17.5276 23.8209 20.7723C22.6495 23.3255 21.4689 25.9546 18.9716 27.49C18.0733 28.0423 16.5047 28.0875 15.4733 27.7183C13.4119 26.9802 11.5045 26.845 9.51768 27.7463C7.9665 28.4502 6.56349 28.2415 5.22276 27.1536C1.42437 24.0732 -0.97889 16.3819 0.38648 11.7055C1.45653 8.04053 5.631 4.58741 10.1566 7.01052C11.8539 7.91905 13.4146 7.48617 15.0613 6.81204C18.2886 5.49116 20.8318 6.3422 22.8771 9.281Z" fill="#202020"/>
<path d="M17.0436 0C17.392 3.36996 15.2009 6.08804 11.9113 6.48294C11.1209 3.56057 13.5097 0.479761 17.0436 0Z" fill="#202020"/>
<path d="M42.5685 13.592H39.8802V5.17383H42.5685C43.839 5.17383 44.8655 5.58191 45.648 6.39806C46.4305 7.20581 46.8217 8.20287 46.8217 9.38924C46.8217 10.584 46.4305 11.5853 45.648 12.393C44.8739 13.1924 43.8474 13.592 42.5685 13.592ZM42.5685 12.9357C43.6454 12.9357 44.4953 12.5992 45.1179 11.9261C45.7489 11.2529 46.0645 10.4073 46.0645 9.38924C46.0645 8.37115 45.7531 7.52554 45.1305 6.85242C44.5079 6.17089 43.6539 5.83012 42.5685 5.83012H40.5996V12.9357H42.5685Z" fill="#202020"/>
<path d="M51.1682 13.7435C50.2931 13.7435 49.5863 13.4364 49.0479 12.8222C48.5094 12.2079 48.2401 11.4465 48.2401 10.5378C48.2401 9.62904 48.5094 8.87178 49.0479 8.26597C49.5863 7.65175 50.2931 7.34464 51.1682 7.34464C52.0516 7.34464 52.7626 7.65175 53.3011 8.26597C53.8396 8.87178 54.1089 9.62904 54.1089 10.5378C54.1089 11.4465 53.8396 12.2079 53.3011 12.8222C52.7626 13.4364 52.0516 13.7435 51.1682 13.7435ZM51.1682 13.1503C51.8581 13.1503 52.4008 12.8979 52.7963 12.393C53.2002 11.8798 53.4021 11.2614 53.4021 10.5378C53.4021 9.82256 53.2002 9.21255 52.7963 8.70771C52.4008 8.19445 51.8581 7.93783 51.1682 7.93783C50.4866 7.93783 49.9439 8.19445 49.5401 8.70771C49.1446 9.21255 48.9469 9.82256 48.9469 10.5378C48.9469 11.2529 49.1446 11.8672 49.5401 12.3804C49.9439 12.8937 50.4866 13.1503 51.1682 13.1503Z" fill="#202020"/>
<path d="M61.6599 13.592H61.0288L59.325 8.37956L57.6085 13.592H56.9775L54.996 7.49609H55.7028L57.3182 12.6707L59.0347 7.49609H59.6026L61.3191 12.6707L62.9346 7.49609H63.6414L61.6599 13.592Z" fill="#202020"/>
<path d="M69.6458 13.592H68.9895V9.46497C68.9895 8.90964 68.8633 8.51839 68.6109 8.29121C68.3585 8.05562 67.9925 7.93783 67.5129 7.93783C67.1342 7.93783 66.7598 8.03879 66.3896 8.24073C66.0194 8.44267 65.7333 8.69088 65.5314 8.98537V13.592H64.8751V7.49609H65.5314V8.41742C65.7754 8.13135 66.0993 7.88314 66.5032 7.67279C66.907 7.45402 67.3151 7.34464 67.7274 7.34464C69.0063 7.34464 69.6458 8.00514 69.6458 9.32614V13.592Z" fill="#202020"/>
<path d="M72.3472 13.592H71.6909V5.17383H72.3472V13.592Z" fill="#202020"/>
<path d="M76.9648 13.7435C76.0897 13.7435 75.383 13.4364 74.8445 12.8222C74.306 12.2079 74.0367 11.4465 74.0367 10.5378C74.0367 9.62904 74.306 8.87178 74.8445 8.26597C75.383 7.65175 76.0897 7.34464 76.9648 7.34464C77.8483 7.34464 78.5592 7.65175 79.0977 8.26597C79.6362 8.87178 79.9055 9.62904 79.9055 10.5378C79.9055 11.4465 79.6362 12.2079 79.0977 12.8222C78.5592 13.4364 77.8483 13.7435 76.9648 13.7435ZM76.9648 13.1503C77.6547 13.1503 78.1974 12.8979 78.5929 12.393C78.9968 11.8798 79.1987 11.2614 79.1987 10.5378C79.1987 9.82256 78.9968 9.21255 78.5929 8.70771C78.1974 8.19445 77.6547 7.93783 76.9648 7.93783C76.2833 7.93783 75.7406 8.19445 75.3367 8.70771C74.9412 9.21255 74.7435 9.82256 74.7435 10.5378C74.7435 11.2529 74.9412 11.8672 75.3367 12.3804C75.7406 12.8937 76.2833 13.1503 76.9648 13.1503Z" fill="#202020"/>
<path d="M86.1313 13.592H85.475V12.8726C84.9449 13.4532 84.255 13.7435 83.4052 13.7435C82.8414 13.7435 82.345 13.5626 81.9159 13.2008C81.4868 12.8306 81.2722 12.3341 81.2722 11.7115C81.2722 11.0805 81.4826 10.5882 81.9033 10.2348C82.3324 9.87305 82.833 9.69214 83.4052 9.69214C84.2634 9.69214 84.9533 9.98243 85.475 10.563V9.32614C85.475 8.88861 85.3193 8.54784 85.008 8.30383C84.6967 8.05141 84.3055 7.9252 83.8343 7.9252C83.0854 7.9252 82.4502 8.2239 81.9285 8.8213L81.5625 8.36694C82.1935 7.68541 82.976 7.34464 83.91 7.34464C84.5663 7.34464 85.1006 7.50871 85.5129 7.83686C85.9251 8.165 86.1313 8.65302 86.1313 9.30089V13.592ZM83.6323 13.226C84.4317 13.226 85.0459 12.9484 85.475 12.393V11.0552C85.0375 10.4915 84.4232 10.2096 83.6323 10.2096C83.1359 10.2096 82.732 10.3526 82.4207 10.6387C82.1178 10.9248 81.9664 11.2866 81.9664 11.7241C81.9664 12.1617 82.1178 12.5235 82.4207 12.8095C82.732 13.0872 83.1359 13.226 83.6323 13.226Z" fill="#202020"/>
<path d="M93.344 13.592H92.6751V12.6202C92.4479 12.9484 92.145 13.2176 91.7664 13.428C91.3961 13.6383 90.9923 13.7435 90.5547 13.7435C89.7386 13.7435 89.0781 13.4532 88.5733 12.8726C88.0768 12.2921 87.8286 11.518 87.8286 10.5504C87.8286 9.59118 88.081 8.81709 88.5859 8.22811C89.0907 7.63913 89.747 7.34464 90.5547 7.34464C91.4298 7.34464 92.1366 7.72327 92.6751 8.48053V5.17383H93.344V13.592ZM90.6683 13.1503C91.0806 13.1503 91.4719 13.0451 91.8421 12.8348C92.2123 12.6244 92.49 12.3678 92.6751 12.0649V9.04847C92.49 8.73716 92.2123 8.47632 91.8421 8.26597C91.4719 8.04721 91.0806 7.93783 90.6683 7.93783C90.012 7.93783 89.4904 8.18604 89.1033 8.68246C88.7247 9.17048 88.5354 9.79311 88.5354 10.5504C88.5354 11.3076 88.7247 11.9303 89.1033 12.4183C89.4904 12.9063 90.012 13.1503 90.6683 13.1503Z" fill="#202020"/>
<path d="M101.233 13.7435C100.358 13.7435 99.6513 13.4364 99.1128 12.8222C98.5743 12.2079 98.305 11.4465 98.305 10.5378C98.305 9.62904 98.5743 8.87178 99.1128 8.26597C99.6513 7.65175 100.358 7.34464 101.233 7.34464C102.117 7.34464 102.828 7.65175 103.366 8.26597C103.905 8.87178 104.174 9.62904 104.174 10.5378C104.174 11.4465 103.905 12.2079 103.366 12.8222C102.828 13.4364 102.117 13.7435 101.233 13.7435ZM101.233 13.1503C101.923 13.1503 102.466 12.8979 102.861 12.393C103.265 11.8798 103.467 11.2614 103.467 10.5378C103.467 9.82256 103.265 9.21255 102.861 8.70771C102.466 8.19445 101.923 7.93783 101.233 7.93783C100.552 7.93783 100.009 8.19445 99.605 8.70771C99.2095 9.21255 99.0118 9.82256 99.0118 10.5378C99.0118 11.2529 99.2095 11.8672 99.605 12.3804C100.009 12.8937 100.552 13.1503 101.233 13.1503Z" fill="#202020"/>
<path d="M110.639 13.592H109.983V9.46497C109.983 8.90964 109.857 8.51839 109.604 8.29121C109.352 8.05562 108.986 7.93783 108.506 7.93783C108.128 7.93783 107.753 8.03879 107.383 8.24073C107.013 8.44267 106.727 8.69088 106.525 8.98537V13.592H105.869V7.49609H106.525V8.41742C106.769 8.13135 107.093 7.88314 107.497 7.67279C107.901 7.45402 108.309 7.34464 108.721 7.34464C110 7.34464 110.639 8.00514 110.639 9.32614V13.592Z" fill="#202020"/>
<path d="M117.276 13.7435C116.477 13.7435 116.077 13.3017 116.077 12.4183V8.07666H115.067V7.49609H116.077V5.83012H116.746V7.49609H117.983V8.07666H116.746V12.3173C116.746 12.8726 116.956 13.1503 117.377 13.1503C117.654 13.1503 117.882 13.0535 118.058 12.86L118.311 13.3649C118.042 13.6173 117.697 13.7435 117.276 13.7435Z" fill="#202020"/>
<path d="M124.197 13.592H123.541V9.43972C123.541 8.8844 123.415 8.49736 123.162 8.27859C122.91 8.05141 122.544 7.93783 122.064 7.93783C121.686 7.93783 121.311 8.03879 120.941 8.24073C120.571 8.44267 120.285 8.69088 120.083 8.98537V13.592H119.426V5.17383H120.083V8.41742C120.327 8.13135 120.651 7.88314 121.054 7.67279C121.458 7.45402 121.866 7.34464 122.279 7.34464C123.558 7.34464 124.197 7.99672 124.197 9.30089V13.592Z" fill="#202020"/>
<path d="M128.943 13.7435C128.051 13.7435 127.319 13.4448 126.747 12.8474C126.175 12.25 125.889 11.4801 125.889 10.5378C125.889 9.64587 126.166 8.89281 126.722 8.27859C127.286 7.65596 127.988 7.34464 128.829 7.34464C129.721 7.34464 130.424 7.65596 130.937 8.27859C131.45 8.89281 131.707 9.65849 131.707 10.5756V10.7523H126.608C126.642 11.4423 126.873 12.0186 127.302 12.4814C127.731 12.9442 128.295 13.1755 128.994 13.1755C129.801 13.1755 130.466 12.8937 130.988 12.3299L131.328 12.759C130.697 13.4153 129.902 13.7435 128.943 13.7435ZM131.038 10.2348C131.03 9.64587 130.832 9.11158 130.445 8.63198C130.066 8.15238 129.524 7.91258 128.817 7.91258C128.152 7.91258 127.622 8.15238 127.227 8.63198C126.84 9.10316 126.633 9.63745 126.608 10.2348H131.038Z" fill="#202020"/>
<path d="M47.5159 28.1547H45.4713L44.9538 26.7285H41.3442L40.8141 28.1547H38.7695L42.0257 19.7365H44.2723L47.5159 28.1547ZM44.4616 25.1509L43.149 21.5287L41.8364 25.1509H44.4616Z" fill="#202020"/>
<path d="M51.7388 28.3062C50.9731 28.3062 50.3463 27.9948 49.8583 27.3722V30.477H48.2554V22.0588H49.8583V22.8287C50.3379 22.2144 50.9647 21.9073 51.7388 21.9073C52.5381 21.9073 53.186 22.1934 53.6824 22.7656C54.1873 23.3293 54.4397 24.1076 54.4397 25.1004C54.4397 26.0933 54.1873 26.8758 53.6824 27.4479C53.186 28.0201 52.5381 28.3062 51.7388 28.3062ZM51.2339 26.88C51.6967 26.88 52.0669 26.7159 52.3446 26.3878C52.6307 26.0596 52.7737 25.6305 52.7737 25.1004C52.7737 24.5788 52.6307 24.1539 52.3446 23.8257C52.0669 23.4976 51.6967 23.3335 51.2339 23.3335C50.9731 23.3335 50.7123 23.4008 50.4514 23.5354C50.1906 23.6701 49.9929 23.8341 49.8583 24.0277V26.1858C49.9929 26.3794 50.1906 26.5434 50.4514 26.6781C50.7207 26.8127 50.9815 26.88 51.2339 26.88Z" fill="#202020"/>
<path d="M59.0969 28.3062C58.3312 28.3062 57.7044 27.9948 57.2164 27.3722V30.477H55.6135V22.0588H57.2164V22.8287C57.696 22.2144 58.3228 21.9073 59.0969 21.9073C59.8963 21.9073 60.5441 22.1934 61.0406 22.7656C61.5454 23.3293 61.7978 24.1076 61.7978 25.1004C61.7978 26.0933 61.5454 26.8758 61.0406 27.4479C60.5441 28.0201 59.8963 28.3062 59.0969 28.3062ZM58.5921 26.88C59.0549 26.88 59.4251 26.7159 59.7027 26.3878C59.9888 26.0596 60.1318 25.6305 60.1318 25.1004C60.1318 24.5788 59.9888 24.1539 59.7027 23.8257C59.4251 23.4976 59.0549 23.3335 58.5921 23.3335C58.3312 23.3335 58.0704 23.4008 57.8096 23.5354C57.5487 23.6701 57.351 23.8341 57.2164 24.0277V26.1858C57.351 26.3794 57.5487 26.5434 57.8096 26.6781C58.0788 26.8127 58.3397 26.88 58.5921 26.88Z" fill="#202020"/>
<path d="M69.2299 28.3062C67.7322 28.3062 66.5458 27.8602 65.6708 26.9683L66.6426 25.6053C67.3662 26.3625 68.2581 26.7412 69.3183 26.7412C69.781 26.7412 70.1386 26.6528 70.391 26.4761C70.6519 26.291 70.7823 26.068 70.7823 25.8072C70.7823 25.58 70.6603 25.3907 70.4163 25.2393C70.1807 25.0878 69.882 24.9784 69.5202 24.9111C69.1668 24.8438 68.7798 24.747 68.3591 24.6208C67.9384 24.4946 67.5471 24.3516 67.1853 24.1917C66.8319 24.0319 66.5332 23.7794 66.2892 23.4345C66.0536 23.0895 65.9358 22.6688 65.9358 22.1724C65.9358 21.4488 66.2261 20.843 66.8067 20.3549C67.3872 19.8585 68.1613 19.6103 69.1289 19.6103C70.4668 19.6103 71.5606 20.0016 72.4104 20.7841L71.4133 22.0966C70.7486 21.4824 69.9325 21.1753 68.9649 21.1753C68.5862 21.1753 68.2917 21.251 68.0814 21.4025C67.871 21.5539 67.7659 21.7601 67.7659 22.0209C67.7659 22.2228 67.8837 22.3953 68.1193 22.5384C68.3633 22.673 68.662 22.774 69.0153 22.8413C69.3771 22.9086 69.7642 23.0096 70.1765 23.1442C70.5972 23.2704 70.9842 23.4176 71.3376 23.5859C71.6994 23.7458 71.9981 24.0024 72.2337 24.3558C72.4777 24.7008 72.5997 25.1173 72.5997 25.6053C72.5997 26.413 72.3094 27.0651 71.7289 27.5615C71.1567 28.058 70.3237 28.3062 69.2299 28.3062Z" fill="#202020"/>
<path d="M75.6406 28.3062C75.0768 28.3062 74.6477 28.1631 74.3532 27.8771C74.0588 27.591 73.9115 27.1787 73.9115 26.6402V23.4597H72.9018V22.0588H73.9115V20.3928H75.527V22.0588H76.7638V23.4597H75.527V26.2111C75.527 26.4046 75.5775 26.5645 75.6784 26.6907C75.7794 26.8169 75.914 26.88 76.0823 26.88C76.3347 26.88 76.5198 26.8211 76.6376 26.7033L76.9784 27.9149C76.6839 28.1758 76.238 28.3062 75.6406 28.3062Z" fill="#202020"/>
<path d="M83.0351 27.3848C82.4461 27.9991 81.6636 28.3062 80.6876 28.3062C79.7116 28.3062 78.9291 27.9991 78.3401 27.3848C77.7595 26.7622 77.4692 26.0007 77.4692 25.1004C77.4692 24.2001 77.7595 23.4429 78.3401 22.8287C78.9291 22.2144 79.7116 21.9073 80.6876 21.9073C81.6636 21.9073 82.4461 22.2144 83.0351 22.8287C83.6241 23.4429 83.9186 24.2001 83.9186 25.1004C83.9186 26.0007 83.6241 26.7622 83.0351 27.3848ZM79.5517 26.3752C79.8294 26.7117 80.208 26.88 80.6876 26.88C81.1672 26.88 81.5458 26.7117 81.8235 26.3752C82.1096 26.0302 82.2526 25.6053 82.2526 25.1004C82.2526 24.604 82.1096 24.1875 81.8235 23.851C81.5458 23.506 81.1672 23.3335 80.6876 23.3335C80.208 23.3335 79.8294 23.506 79.5517 23.851C79.274 24.1875 79.1352 24.604 79.1352 25.1004C79.1352 25.6053 79.274 26.0302 79.5517 26.3752Z" fill="#202020"/>
<path d="M86.7106 28.1547H85.1077V22.0588H86.7106V22.8918C86.9377 22.6057 87.228 22.3701 87.5814 22.185C87.9348 21.9999 88.2924 21.9073 88.6542 21.9073V23.4723C88.5448 23.4471 88.3976 23.4345 88.2125 23.4345C87.9432 23.4345 87.6571 23.5018 87.3542 23.6364C87.0513 23.771 86.8368 23.9351 86.7106 24.1286V28.1547Z" fill="#202020"/>
<path d="M92.5207 28.3062C91.5783 28.3062 90.8 28.0117 90.1858 27.4227C89.5716 26.8337 89.2645 26.0596 89.2645 25.1004C89.2645 24.2001 89.5589 23.4429 90.1479 22.8287C90.7453 22.2144 91.5026 21.9073 92.4197 21.9073C93.3284 21.9073 94.0646 22.2186 94.6284 22.8413C95.1921 23.4555 95.474 24.2632 95.474 25.2645V25.6179H90.943C90.9935 26.0218 91.1744 26.3583 91.4857 26.6276C91.7971 26.8968 92.2009 27.0314 92.6974 27.0314C92.9666 27.0314 93.2569 26.9768 93.5682 26.8674C93.8879 26.758 94.1404 26.6107 94.3255 26.4256L95.0322 27.4606C94.418 28.0243 93.5808 28.3062 92.5207 28.3062ZM93.9216 24.5325C93.8964 24.1875 93.7575 23.8762 93.5051 23.5985C93.2611 23.3209 92.8993 23.182 92.4197 23.182C91.9653 23.182 91.612 23.3209 91.3595 23.5985C91.1071 23.8678 90.9599 24.1791 90.9178 24.5325H93.9216Z" fill="#202020"/>
</svg>
