<svg width="118" height="31" viewBox="0 0 118 31" fill="none" xmlns="http://www.w3.org/2000/svg">
<path d="M53.2758 11.2045C52.0726 11.2045 51.0587 10.7964 50.2342 9.98027C49.418 9.16411 49.0099 8.11657 49.0099 6.83764C49.0099 5.55871 49.418 4.51538 50.2342 3.70763C51.0587 2.89148 52.0726 2.4834 53.2758 2.4834C54.5548 2.4834 55.6107 2.963 56.4437 3.92219L55.901 4.31344C55.5981 3.95164 55.2153 3.66556 54.7525 3.45522C54.2981 3.24487 53.8059 3.13969 53.2758 3.13969C52.2746 3.13969 51.4374 3.48466 50.7643 4.17461C50.0995 4.86456 49.7672 5.75224 49.7672 6.83764C49.7672 7.91463 50.0995 8.80231 50.7643 9.50067C51.4374 10.199 52.2746 10.5482 53.2758 10.5482C53.7891 10.5482 54.2603 10.4472 54.6894 10.2453C55.1185 10.0434 55.4719 9.80357 55.7495 9.52591V7.50655H52.5691V6.86288H56.4689V9.80358C55.636 10.7375 54.5716 11.2045 53.2758 11.2045Z" fill="#202020"/>
<path d="M60.9738 11.1919C60.082 11.1919 59.3499 10.8932 58.7778 10.2958C58.2056 9.6984 57.9196 8.92852 57.9196 7.98615C57.9196 7.09427 58.1972 6.34122 58.7526 5.72699C59.3163 5.10436 60.0189 4.79304 60.8603 4.79304C61.7521 4.79304 62.4547 5.10436 62.968 5.72699C63.4812 6.34122 63.7378 7.10689 63.7378 8.02401V8.20071H58.639C58.6726 8.89066 58.904 9.46702 59.3331 9.92979C59.7622 10.3926 60.326 10.6239 61.0243 10.6239C61.8321 10.6239 62.4968 10.3421 63.0184 9.77833L63.3592 10.2074C62.7282 10.8637 61.933 11.1919 60.9738 11.1919ZM63.0689 7.68325C63.0605 7.09427 62.8628 6.55998 62.4757 6.08038C62.0971 5.60078 61.5544 5.36099 60.8476 5.36099C60.1829 5.36099 59.6528 5.60078 59.2574 6.08038C58.8703 6.55157 58.6642 7.08585 58.639 7.68325H63.0689Z" fill="#202020"/>
<path d="M66.7591 11.1919C65.9598 11.1919 65.5601 10.7501 65.5601 9.86668V5.52506H64.5504V4.94449H65.5601V3.27852H66.229V4.94449H67.4659V5.52506H66.229V9.76571C66.229 10.321 66.4394 10.5987 66.8601 10.5987C67.1377 10.5987 67.3649 10.5019 67.5416 10.3084L67.794 10.8133C67.5248 11.0657 67.1798 11.1919 66.7591 11.1919Z" fill="#202020"/>
<path d="M72.5039 3.9853C72.3693 3.9853 72.2515 3.93481 72.1505 3.83384C72.0496 3.73288 71.9991 3.61508 71.9991 3.48046C71.9991 3.34583 72.0496 3.23224 72.1505 3.13969C72.2515 3.03872 72.3693 2.98824 72.5039 2.98824C72.6469 2.98824 72.7647 3.03872 72.8573 3.13969C72.9583 3.23224 73.0087 3.34583 73.0087 3.48046C73.0087 3.62349 72.9583 3.7455 72.8573 3.84647C72.7647 3.93902 72.6469 3.9853 72.5039 3.9853ZM72.8321 11.0404H72.1758V4.94449H72.8321V11.0404Z" fill="#202020"/>
<path d="M76.2002 11.1919C75.4009 11.1919 75.0012 10.7501 75.0012 9.86668V5.52506H73.9915V4.94449H75.0012V3.27852H75.6701V4.94449H76.907V5.52506H75.6701V9.76571C75.6701 10.321 75.8805 10.5987 76.3012 10.5987C76.5788 10.5987 76.806 10.5019 76.9827 10.3084L77.2351 10.8133C76.9659 11.0657 76.6209 11.1919 76.2002 11.1919Z" fill="#202020"/>
<path d="M84.1915 11.1919C83.3165 11.1919 82.6097 10.8848 82.0712 10.2706C81.5327 9.65633 81.2635 8.89486 81.2635 7.98615C81.2635 7.07744 81.5327 6.32018 82.0712 5.71437C82.6097 5.10015 83.3165 4.79304 84.1915 4.79304C85.075 4.79304 85.786 5.10015 86.3245 5.71437C86.863 6.32018 87.1322 7.07744 87.1322 7.98615C87.1322 8.89486 86.863 9.65633 86.3245 10.2706C85.786 10.8848 85.075 11.1919 84.1915 11.1919ZM84.1915 10.5987C84.8815 10.5987 85.4242 10.3463 85.8196 9.84144C86.2235 9.32818 86.4255 8.70976 86.4255 7.98615C86.4255 7.27096 86.2235 6.66095 85.8196 6.15611C85.4242 5.64285 84.8815 5.38623 84.1915 5.38623C83.51 5.38623 82.9673 5.64285 82.5634 6.15611C82.168 6.66095 81.9702 7.27096 81.9702 7.98615C81.9702 8.70134 82.168 9.31556 82.5634 9.82882C82.9673 10.3421 83.51 10.5987 84.1915 10.5987Z" fill="#202020"/>
<path d="M93.5978 11.0404H92.9415V6.91337C92.9415 6.35804 92.8153 5.96679 92.5629 5.73961C92.3105 5.50402 91.9445 5.38623 91.4649 5.38623C91.0862 5.38623 90.7118 5.4872 90.3416 5.68913C89.9714 5.89107 89.6853 6.13928 89.4834 6.43377V11.0404H88.8271V4.94449H89.4834V5.86582C89.7274 5.57975 90.0513 5.33154 90.4552 5.12119C90.8591 4.90242 91.2671 4.79304 91.6794 4.79304C92.9584 4.79304 93.5978 5.45354 93.5978 6.77454V11.0404Z" fill="#202020"/>
<path d="M53.1875 25.7672C51.9254 25.7672 50.861 25.3633 49.9944 24.5556C49.1361 23.7478 48.707 22.6961 48.707 21.4003C48.707 20.0962 49.1361 19.0444 49.9944 18.2451C50.861 17.4457 51.9254 17.0461 53.1875 17.0461C54.7188 17.0461 55.88 17.6729 56.6709 18.9266L55.1816 19.7344C54.9797 19.4146 54.702 19.1538 54.3486 18.9519C54.0036 18.7415 53.6166 18.6363 53.1875 18.6363C52.4218 18.6363 51.7908 18.8972 51.2943 19.4188C50.7979 19.9405 50.5497 20.601 50.5497 21.4003C50.5497 22.1997 50.7979 22.8602 51.2943 23.3818C51.7908 23.9035 52.4218 24.1643 53.1875 24.1643C53.5409 24.1643 53.8816 24.1012 54.2098 23.975C54.5379 23.8488 54.7946 23.6973 54.9797 23.5207V22.511H52.7584V20.946H56.7718V24.1769C55.8211 25.2371 54.6263 25.7672 53.1875 25.7672Z" fill="#202020"/>
<path d="M63.3313 24.8332C62.7423 25.4475 61.9598 25.7546 60.9838 25.7546C60.0078 25.7546 59.2253 25.4475 58.6363 24.8332C58.0557 24.2106 57.7655 23.4491 57.7655 22.5488C57.7655 21.6485 58.0557 20.8913 58.6363 20.2771C59.2253 19.6628 60.0078 19.3557 60.9838 19.3557C61.9598 19.3557 62.7423 19.6628 63.3313 20.2771C63.9203 20.8913 64.2148 21.6485 64.2148 22.5488C64.2148 23.4491 63.9203 24.2106 63.3313 24.8332ZM59.8479 23.8236C60.1256 24.1601 60.5042 24.3284 60.9838 24.3284C61.4634 24.3284 61.842 24.1601 62.1197 23.8236C62.4058 23.4786 62.5488 23.0537 62.5488 22.5488C62.5488 22.0524 62.4058 21.6359 62.1197 21.2994C61.842 20.9544 61.4634 20.7819 60.9838 20.7819C60.5042 20.7819 60.1256 20.9544 59.8479 21.2994C59.5703 21.6359 59.4314 22.0524 59.4314 22.5488C59.4314 23.0537 59.5703 23.4786 59.8479 23.8236Z" fill="#202020"/>
<path d="M70.5785 24.8332C69.9895 25.4475 69.207 25.7546 68.231 25.7546C67.255 25.7546 66.4725 25.4475 65.8835 24.8332C65.3029 24.2106 65.0127 23.4491 65.0127 22.5488C65.0127 21.6485 65.3029 20.8913 65.8835 20.2771C66.4725 19.6628 67.255 19.3557 68.231 19.3557C69.207 19.3557 69.9895 19.6628 70.5785 20.2771C71.1675 20.8913 71.462 21.6485 71.462 22.5488C71.462 23.4491 71.1675 24.2106 70.5785 24.8332ZM67.0951 23.8236C67.3728 24.1601 67.7514 24.3284 68.231 24.3284C68.7106 24.3284 69.0892 24.1601 69.3669 23.8236C69.653 23.4786 69.796 23.0537 69.796 22.5488C69.796 22.0524 69.653 21.6359 69.3669 21.2994C69.0892 20.9544 68.7106 20.7819 68.231 20.7819C67.7514 20.7819 67.3728 20.9544 67.0951 21.2994C66.8175 21.6359 66.6786 22.0524 66.6786 22.5488C66.6786 23.0537 66.8175 23.4786 67.0951 23.8236Z" fill="#202020"/>
<path d="M75.1501 28.0768C74.0983 28.0768 73.2233 27.7739 72.5249 27.1681L73.2443 26.007C73.6987 26.5118 74.3339 26.7642 75.1501 26.7642C75.6044 26.7642 75.9957 26.6422 76.3238 26.3982C76.6604 26.1626 76.8287 25.7714 76.8287 25.2245V24.6061C76.3238 25.2455 75.697 25.5653 74.9481 25.5653C74.1572 25.5653 73.5093 25.296 73.0045 24.7575C72.5081 24.2106 72.2599 23.4449 72.2599 22.4605C72.2599 21.4845 72.5081 20.723 73.0045 20.1761C73.5093 19.6292 74.1572 19.3557 74.9481 19.3557C75.7054 19.3557 76.3322 19.667 76.8287 20.2897V19.5072H78.4442V25.1866C78.4442 25.7419 78.3432 26.2173 78.1413 26.6128C77.9477 27.0083 77.6827 27.307 77.3461 27.5089C77.0096 27.7108 76.6604 27.8539 76.2986 27.938C75.9452 28.0306 75.5624 28.0768 75.1501 28.0768ZM75.453 24.1391C75.7138 24.1391 75.9746 24.0718 76.2355 23.9371C76.4963 23.8025 76.694 23.6384 76.8287 23.4449V21.4761C76.694 21.2741 76.4963 21.11 76.2355 20.9838C75.9831 20.8492 75.7222 20.7819 75.453 20.7819C74.9902 20.7819 74.6158 20.9333 74.3297 21.2363C74.0521 21.5392 73.9132 21.9472 73.9132 22.4605C73.9132 22.9737 74.0521 23.3818 74.3297 23.6847C74.6158 23.9876 74.9902 24.1391 75.453 24.1391Z" fill="#202020"/>
<path d="M81.6368 25.6031H80.0339V17.1849H81.6368V25.6031Z" fill="#202020"/>
<path d="M86.0911 25.7546C85.1487 25.7546 84.3704 25.4601 83.7562 24.8711C83.142 24.2821 82.8349 23.508 82.8349 22.5488C82.8349 21.6485 83.1294 20.8913 83.7183 20.2771C84.3157 19.6628 85.073 19.3557 85.9901 19.3557C86.8988 19.3557 87.6351 19.667 88.1988 20.2897C88.7625 20.9039 89.0444 21.7116 89.0444 22.7129V23.0663H84.5135C84.564 23.4702 84.7449 23.8067 85.0562 24.076C85.3675 24.3452 85.7714 24.4798 86.2678 24.4798C86.537 24.4798 86.8273 24.4252 87.1386 24.3158C87.4584 24.2064 87.7108 24.0591 87.8959 23.874L88.6027 24.909C87.9885 25.4727 87.1513 25.7546 86.0911 25.7546ZM87.492 21.9809C87.4668 21.6359 87.328 21.3246 87.0755 21.0469C86.8315 20.7693 86.4697 20.6304 85.9901 20.6304C85.5358 20.6304 85.1824 20.7693 84.93 21.0469C84.6775 21.3162 84.5303 21.6275 84.4882 21.9809H87.492Z" fill="#202020"/>
<path d="M95.2614 25.6031H93.4692V17.1849H97.407C98.2905 17.1849 98.9804 17.4457 99.4768 17.9674C99.9817 18.4807 100.234 19.1243 100.234 19.8984C100.234 20.6641 99.9817 21.3078 99.4768 21.8294C98.972 22.3511 98.2821 22.6119 97.407 22.6119H95.2614V25.6031ZM97.1672 21.0343C97.529 21.0343 97.8235 20.9333 98.0507 20.7314C98.2863 20.5211 98.4041 20.2434 98.4041 19.8984C98.4041 19.5535 98.2863 19.28 98.0507 19.0781C97.8235 18.8677 97.529 18.7625 97.1672 18.7625H95.2614V21.0343H97.1672Z" fill="#202020"/>
<path d="M102.91 25.6031H101.307V17.1849H102.91V25.6031Z" fill="#202020"/>
<path d="M109.762 25.6031H108.159V24.9721C107.722 25.4937 107.078 25.7546 106.228 25.7546C105.682 25.7546 105.189 25.5779 104.752 25.2245C104.323 24.8627 104.108 24.3663 104.108 23.7352C104.108 23.0789 104.319 22.5867 104.739 22.2586C105.168 21.9304 105.665 21.7663 106.228 21.7663C107.095 21.7663 107.739 22.0145 108.159 22.511V21.6906C108.159 21.3793 108.037 21.1311 107.793 20.946C107.549 20.7609 107.226 20.6683 106.822 20.6683C106.157 20.6683 105.564 20.9081 105.042 21.3877L104.436 20.3149C105.16 19.6755 106.048 19.3557 107.099 19.3557C107.882 19.3557 108.521 19.5366 109.018 19.8984C109.514 20.2602 109.762 20.8492 109.762 21.6654V25.6031ZM106.872 24.6692C107.47 24.6692 107.899 24.4925 108.159 24.1391V23.3818C107.899 23.0284 107.47 22.8517 106.872 22.8517C106.544 22.8517 106.271 22.9359 106.052 23.1042C105.833 23.264 105.724 23.487 105.724 23.7731C105.724 24.0507 105.833 24.2695 106.052 24.4294C106.271 24.5892 106.544 24.6692 106.872 24.6692Z" fill="#202020"/>
<path d="M111.138 27.9885L111.377 26.5497C111.529 26.617 111.697 26.6507 111.882 26.6507C112.311 26.6507 112.593 26.5034 112.728 26.2089L112.955 25.6915L110.481 19.5072H112.198L113.788 23.7478L115.378 19.5072H117.107L114.242 26.6002C114.032 27.1387 113.738 27.5131 113.359 27.7234C112.98 27.9422 112.505 28.06 111.933 28.0768C111.638 28.0768 111.373 28.0474 111.138 27.9885Z" fill="#202020"/>
<path d="M0.709169 3.58058C0.708645 7.50655 0.708907 11.4325 0.708907 15.3585C0.708645 19.4591 0.701314 23.5594 0.717547 27.6603C0.719642 28.2198 0.777508 28.7953 0.91759 29.3352C1.23022 30.5392 2.24431 31.0809 3.43147 30.6884C3.92241 30.5261 4.38717 30.2679 4.84093 30.0129C10.273 26.9607 15.7047 23.9074 21.1281 20.8392C23.0241 19.7665 24.903 18.6631 26.7778 17.5534C28.99 16.244 28.9662 14.5227 26.7333 13.1986C26.6209 13.1318 26.5081 13.0653 26.3944 13.0006C19.3162 8.97989 12.2378 4.95993 5.15959 0.939187C1.9809 -0.86643 0.70943 -0.112082 0.709169 3.58058Z" fill="#ECECEC"/>
<path d="M1.72461 1.7671C1.72461 10.9031 1.72461 19.8783 1.72461 28.6953C6.22635 24.2263 10.7472 19.7382 15.2259 15.2919C10.8347 10.8931 6.36983 6.42044 1.72461 1.7671ZM2.94372 0.726562C2.92722 0.786523 2.91046 0.846745 2.89397 0.906705C7.37947 5.38226 11.865 9.85781 16.2217 14.2051C17.4164 13.0258 18.7125 11.7467 20.062 10.4147C14.3791 7.19861 8.66142 3.96259 2.94372 0.726562ZM20.0623 20.3627C18.6905 18.9906 17.4101 17.7103 16.2785 16.5783C11.8553 20.9892 7.38549 25.4465 2.9157 29.9037C2.93089 29.9537 2.94633 30.0034 2.96152 30.0534C8.67739 26.8143 14.3933 23.5751 20.0623 20.3627ZM16.9095 15.1307C18.4967 16.7061 19.9347 18.1339 21.4089 19.597C23.0592 18.6558 24.8586 17.6739 26.6113 16.6147C27.7895 15.9028 27.8532 14.9633 26.7467 14.2713C25.085 13.2321 23.3624 12.2884 21.6398 11.3516C21.4214 11.233 20.9436 11.2874 20.7619 11.454C19.4171 12.6864 18.1171 13.9676 16.9095 15.1307Z" fill="#202020"/>
</svg>
