<svg width="99" height="25" viewBox="0 0 99 25" fill="none" xmlns="http://www.w3.org/2000/svg">
<g clip-path="url(#clip0_8101_3905)">
<mask id="mask0_8101_3905" style="mask-type:luminance" maskUnits="userSpaceOnUse" x="0" y="0" width="99" height="25">
<path d="M99 0H0V24.9599H99V0Z" fill="white"/>
</mask>
<g mask="url(#mask0_8101_3905)">
<path d="M19.9277 0.515769H23.3021V3.03147C23.8798 2.06156 24.7006 1.31897 25.7951 0.788555C26.8894 0.258138 28.1207 -0.0146484 29.5191 -0.0146484C31.2063 -0.0146484 32.696 0.379375 34.0032 1.16742C35.3105 1.95547 36.3136 3.06177 37.0281 4.48632C37.7426 5.91088 38.1072 7.54759 38.1072 9.39647C38.1072 11.2454 37.7426 12.9275 37.0281 14.3369C36.3136 15.7615 35.2952 16.8677 34.0032 17.6558C32.7112 18.4439 31.2063 18.8379 29.5191 18.8379C28.2271 18.8379 27.0871 18.5954 26.0838 18.1408C25.0806 17.6709 24.2902 17.0041 23.7277 16.1404V24.9301H19.9429V0.515769H19.9277ZM25.1109 13.761C26.0838 14.8825 27.2846 15.4432 28.8807 15.4432C30.4768 15.4432 31.7079 14.8825 32.696 13.761C33.6841 12.6396 34.1705 11.2454 34.1705 9.42678C34.1705 7.6082 33.6841 6.24428 32.696 5.12282C31.7079 4.00136 30.4768 3.44063 28.8807 3.44063C27.2846 3.44063 26.0838 4.00136 25.1109 5.12282C24.1382 6.24428 23.6518 7.62335 23.6518 9.42678C23.6518 11.2302 24.1382 12.6396 25.1109 13.761Z" fill="black"/>
<path d="M44.4302 17.6862C43.123 16.8981 42.1198 15.7917 41.4053 14.3672C40.691 12.9426 40.3262 11.2908 40.3262 9.42675C40.3262 7.56271 40.691 5.94115 41.4053 4.5166C42.1198 3.09205 43.1382 1.98575 44.4302 1.1977C45.7222 0.409649 47.2271 0.015625 48.9143 0.015625C50.2976 0.015625 51.5288 0.273256 52.608 0.788519C53.6873 1.30378 54.5232 2.03121 55.1161 2.97081V0.515733H58.4601V18.3377H55.1161V15.8524C54.5232 16.792 53.6873 17.5193 52.608 18.0649C51.5288 18.5953 50.2976 18.8681 48.9143 18.8681C47.2271 18.8681 45.7374 18.4741 44.4302 17.6862ZM45.7071 13.7913C46.6799 14.8976 47.9568 15.4432 49.5223 15.4432C51.0879 15.4432 52.3496 14.8976 53.3073 13.7913C54.2648 12.685 54.7361 11.2302 54.7361 9.42675C54.7361 7.62332 54.2648 6.19877 53.3073 5.09248C52.3496 3.98618 51.0879 3.4406 49.5223 3.4406C47.9568 3.4406 46.6799 4.00133 45.7071 5.09248C44.7342 6.19877 44.2326 7.63847 44.2326 9.42675C44.2326 11.215 44.719 12.685 45.7071 13.7913Z" fill="black"/>
<path d="M63.0358 21.6268H71.472C72.6881 21.6268 73.6153 21.2935 74.2537 20.6418C74.8921 19.9901 75.1962 19.0353 75.1962 17.8078V15.277C74.5578 16.1105 73.7826 16.747 72.8552 17.1561C71.9281 17.5653 70.9096 17.7624 69.7848 17.7624C68.1279 17.7624 66.6383 17.3986 65.3462 16.656C64.0391 15.9135 63.0358 14.8678 62.3215 13.5038C61.607 12.1399 61.2422 10.5941 61.2422 8.83618C61.2422 7.07823 61.607 5.57789 62.3215 4.24428C63.0358 2.91066 64.0542 1.86498 65.3462 1.13755C66.6536 0.394964 68.1279 0.03125 69.7848 0.03125C70.9552 0.03125 72.0345 0.243416 73.0225 0.682905C74.0104 1.12239 74.8465 1.7589 75.5153 2.62272V0.516202H78.8593V17.5047C78.8593 20.0204 78.2209 21.8996 76.9594 23.1271C75.6978 24.3547 73.9042 24.9608 71.6088 24.9608H63.0206V21.6268H63.0358ZM66.5472 12.8067C67.4743 13.8221 68.6751 14.3374 70.1496 14.3374C71.6241 14.3374 72.84 13.8221 73.752 12.8067C74.6794 11.7914 75.1353 10.4577 75.1353 8.83618C75.1353 7.21462 74.6794 5.92646 73.752 4.92625C72.8249 3.92603 71.6241 3.42591 70.1496 3.42591C68.6751 3.42591 67.4592 3.92603 66.5472 4.92625C65.6198 5.92646 65.1639 7.22977 65.1639 8.83618C65.1639 10.4426 65.6198 11.7914 66.5472 12.8067Z" fill="black"/>
<path d="M84.1195 15.958C82.4931 14.3667 81.6875 12.1541 81.6875 9.33535C81.6875 7.45615 82.0523 5.81943 82.7818 4.41005C83.5115 3.00065 84.5756 1.9095 85.8828 1.15176C87.19 0.378869 88.7252 0 90.4124 0C93.0573 0 95.155 0.803203 96.6903 2.39446C98.2255 3.98571 99.0007 6.25892 99.0007 9.00195C99.0007 9.39596 98.9703 9.97184 98.8943 10.6993H85.4724C85.5787 12.1996 86.126 13.1695 87.1444 13.9879C88.1629 14.8062 89.6372 15.1396 91.5676 15.1396H97.891V18.3525H91.2941C88.102 18.3525 85.746 17.5492 84.1347 15.958H84.1195ZM95.231 7.78955V7.6077C95.231 6.24376 94.8054 5.13748 93.9541 4.30396C93.103 3.47044 91.9325 3.04611 90.4278 3.04611C88.9229 3.04611 87.8132 3.4856 86.9164 4.34942C86.0196 5.22839 85.5483 6.365 85.4724 7.7744H95.231V7.78955Z" fill="black"/>
<path d="M0 0.515625H4.4689L11.1723 9.42664L17.8764 18.3529H13.4074L8.93817 12.4016L4.4689 18.3529H0L6.70337 9.42664L0 0.515625Z" fill="black"/>
<path d="M10.6405 4.19823L13.4069 0.515625H17.8758L13.4982 6.33505C12.7837 7.28981 11.3549 7.28981 10.6405 6.33505C10.1693 5.69856 10.1693 4.83474 10.6405 4.19823Z" fill="black"/>
</g>
</g>
<defs>
<clipPath id="clip0_8101_3905">
<rect width="99" height="24.3158" fill="white"/>
</clipPath>
</defs>
</svg>
